<svg xmlns="http://www.w3.org/2000/svg" viewBox="0 0 1400 1400" width="1400" height="1400" role="img">
  <rect width="1400" height="1400" fill="#f4f3f1"/>
  <circle cx="200" cy="200" r="14" fill="#111111"/>
  <circle cx="343" cy="200" r="14" fill="#111111"/>
  <circle cx="486" cy="200" r="14" fill="#111111"/>
  <circle cx="629" cy="200" r="14" fill="#111111"/>
  <circle cx="772" cy="200" r="14" fill="#111111"/>
  <circle cx="915" cy="200" r="14" fill="#111111"/>
  <circle cx="1058" cy="200" r="14" fill="#111111"/>
  <circle cx="1201" cy="200" r="14" fill="#111111"/>
  <circle cx="200" cy="343" r="14" fill="#111111"/>
  <circle cx="343" cy="343" r="14" fill="#111111"/>
  <circle cx="486" cy="343" r="14" fill="#111111"/>
  <circle cx="629" cy="343" r="14" fill="#111111"/>
  <circle cx="772" cy="343" r="14" fill="#111111"/>
  <circle cx="915" cy="343" r="14" fill="#111111"/>
  <circle cx="1058" cy="343" r="14" fill="#111111"/>
  <circle cx="1201" cy="343" r="14" fill="#111111"/>
  <circle cx="200" cy="486" r="14" fill="#111111"/>
  <circle cx="343" cy="486" r="14" fill="#111111"/>
  <circle cx="486" cy="486" r="14" fill="#111111"/>
  <circle cx="629" cy="486" r="14" fill="#111111"/>
  <circle cx="772" cy="486" r="14" fill="#111111"/>
  <circle cx="915" cy="486" r="14" fill="#111111"/>
  <circle cx="1058" cy="486" r="14" fill="#111111"/>
  <circle cx="1201" cy="486" r="14" fill="#111111"/>
  <circle cx="200" cy="629" r="14" fill="#111111"/>
  <circle cx="343" cy="629" r="14" fill="#111111"/>
  <circle cx="486" cy="629" r="14" fill="#111111"/>
  <circle cx="629" cy="629" r="14" fill="#111111"/>
  <circle cx="772" cy="629" r="14" fill="#111111"/>
  <circle cx="915" cy="629" r="14" fill="#111111"/>
  <circle cx="1058" cy="629" r="14" fill="#111111"/>
  <circle cx="1201" cy="629" r="14" fill="#111111"/>
  <circle cx="200" cy="772" r="14" fill="#111111"/>
  <circle cx="343" cy="772" r="14" fill="#111111"/>
  <circle cx="486" cy="772" r="14" fill="#111111"/>
  <circle cx="629" cy="772" r="14" fill="#111111"/>
  <circle cx="772" cy="772" r="14" fill="#111111"/>
  <circle cx="915" cy="772" r="26" fill="#e0432b"/>
  <circle cx="1058" cy="772" r="14" fill="#111111"/>
  <circle cx="1201" cy="772" r="14" fill="#111111"/>
  <circle cx="200" cy="915" r="14" fill="#111111"/>
  <circle cx="343" cy="915" r="14" fill="#111111"/>
  <circle cx="486" cy="915" r="14" fill="#111111"/>
  <circle cx="629" cy="915" r="14" fill="#111111"/>
  <circle cx="772" cy="915" r="14" fill="#111111"/>
  <circle cx="915" cy="915" r="14" fill="#111111"/>
  <circle cx="1058" cy="915" r="14" fill="#111111"/>
  <circle cx="1201" cy="915" r="14" fill="#111111"/>
  <circle cx="200" cy="1058" r="14" fill="#111111"/>
  <circle cx="343" cy="1058" r="14" fill="#111111"/>
  <circle cx="486" cy="1058" r="14" fill="#111111"/>
  <circle cx="629" cy="1058" r="14" fill="#111111"/>
  <circle cx="772" cy="1058" r="14" fill="#111111"/>
  <circle cx="915" cy="1058" r="14" fill="#111111"/>
  <circle cx="1058" cy="1058" r="14" fill="#111111"/>
  <circle cx="1201" cy="1058" r="14" fill="#111111"/>
  <circle cx="200" cy="1201" r="14" fill="#111111"/>
  <circle cx="343" cy="1201" r="14" fill="#111111"/>
  <circle cx="486" cy="1201" r="14" fill="#111111"/>
  <circle cx="629" cy="1201" r="14" fill="#111111"/>
  <circle cx="772" cy="1201" r="14" fill="#111111"/>
  <circle cx="915" cy="1201" r="14" fill="#111111"/>
  <circle cx="1058" cy="1201" r="14" fill="#111111"/>
  <circle cx="1201" cy="1201" r="14" fill="#111111"/>
</svg>
